<svg width="92" height="24" viewBox="0 0 92 24" fill="none" xmlns="http://www.w3.org/2000/svg">
<g clip-path="url(#clip0_5507_26141)">
<path d="M39.203 24.0001C39.9873 24.0001 40.7588 23.3625 40.9182 22.5782L44.2785 4.45705C44.4379 3.67278 43.9342 3.03516 43.2137 3.03516H6.28272C5.42831 3.03516 4.66317 3.67278 4.50376 4.45705L0.805568 22.5782C0.652539 23.3625 1.15626 24.0001 1.94053 24.0001H39.1966H39.203Z" fill="#014DA2"/>
<path d="M18.0212 10.482L16.5802 17.4958C16.5802 17.4958 15.5983 21.5319 20.916 21.5319C20.916 21.5319 25.5898 21.6913 26.8778 17.974L27.305 15.9018H23.6578L23.3199 17.5468C23.3199 17.5468 22.9628 18.9304 21.4708 18.8221C21.4708 18.8221 19.915 18.9815 20.2593 17.7062L21.7449 10.482C21.7449 10.482 21.7832 9.28964 23.4538 9.15574C23.4538 9.15574 24.9713 9.15574 24.8055 10.3226L24.4357 12.127H28.0829L28.4527 10.3226C28.4527 10.3226 29.1732 6.44586 23.9894 6.54788C23.9894 6.54788 19.0159 6.75829 18.0276 10.482H18.0212Z" fill="white"/>
<path d="M29.1095 10.482L27.6748 17.4958C27.6748 17.4958 26.6929 21.5319 32.0106 21.5319C32.0106 21.5319 36.678 21.6913 37.9788 17.974L38.3996 15.9018H34.7524L34.4145 17.5468C34.4145 17.5468 34.0574 18.9304 32.5654 18.8221C32.5654 18.8221 31.0096 18.9815 31.3539 17.7062L32.8395 10.482C32.8395 10.482 32.8778 9.28964 34.5484 9.15574C34.5484 9.15574 36.0659 9.15574 35.9065 10.3226L35.5367 12.127H39.1775L39.5473 10.3226C39.5473 10.3226 40.2678 6.44586 35.0903 6.54788C35.0903 6.54788 30.1041 6.75829 29.1158 10.482H29.1095Z" fill="white"/>
<path d="M23.0585 3.03516H18.8439L11.3901 11.1521L12.5761 5.86619L8.72484 5.85981L5.42834 21.1563H9.27957L10.1659 16.8906L11.1605 15.7429L12.4932 21.1627H16.3061L14.0936 12.829L23.0585 3.03516Z" fill="white"/>
<path d="M25.8449 0H21.6111L18.8439 3.03507H23.0522L25.8449 0Z" fill="#ED1B23"/>
<path d="M81.796 10.6484C81.3369 10.6484 80.9033 10.7122 80.5207 10.8397C80.1254 10.9672 79.7875 11.1968 79.5005 11.5156C79.22 11.8344 78.9968 12.2616 78.8438 12.7845C78.6908 13.3073 78.6143 13.9704 78.6143 14.7547C78.6143 15.539 78.678 16.1766 78.7992 16.6931C78.9267 17.2159 79.1116 17.6431 79.3603 17.9619C79.6153 18.2807 79.9341 18.5103 80.3167 18.6314C80.6865 18.7526 81.1265 18.81 81.6302 18.81C82.695 18.81 83.4665 18.5358 83.932 17.9874C84.3911 17.4455 84.627 16.6548 84.627 15.641V15.5326H82.5547V15.641C82.5547 16.2404 82.4846 16.6803 82.338 16.9481C82.2041 17.1968 82 17.3179 81.7131 17.3179C81.5218 17.3179 81.3624 17.2733 81.2476 17.1904C81.1265 17.1075 81.0372 16.9609 80.9671 16.7696C80.8969 16.5592 80.8459 16.2914 80.814 15.9662C80.7885 15.6346 80.7694 15.2329 80.7694 14.7675C80.7694 14.3275 80.7822 13.9449 80.814 13.6261C80.8395 13.3137 80.8906 13.0523 80.9607 12.8482C81.0308 12.6569 81.1265 12.5167 81.2604 12.421C81.3943 12.3254 81.5664 12.2807 81.7769 12.2807C81.9426 12.2807 82.0702 12.319 82.1658 12.3891C82.2614 12.4657 82.3443 12.574 82.3953 12.7016C82.4527 12.8355 82.491 12.9949 82.5165 13.1607C82.542 13.3392 82.5484 13.5177 82.5484 13.6963V13.8047H84.6206V13.6963C84.6206 12.7717 84.3783 12.0257 83.9129 11.4837C83.4347 10.9354 82.7269 10.6548 81.796 10.6548V10.6484Z" fill="#FF5400"/>
<path d="M91.22 13.7914V13.683C91.22 12.7585 90.9777 12.0125 90.5122 11.4705C90.034 10.9222 89.3263 10.6416 88.3953 10.6416C87.9363 10.6416 87.5027 10.7054 87.1201 10.8329C86.7248 10.9604 86.3868 11.19 86.0999 11.5088C85.8194 11.8276 85.5962 12.2548 85.4432 12.7776C85.2901 13.3005 85.2136 13.9636 85.2136 14.7479C85.2136 15.5321 85.2774 16.1698 85.3985 16.6862C85.5261 17.2091 85.711 17.6363 85.9596 17.9551C86.2147 18.2739 86.5335 18.5035 86.9161 18.6246C87.2859 18.7457 87.7258 18.8031 88.2296 18.8031C89.2944 18.8031 90.0659 18.529 90.5314 17.9806C90.9905 17.4386 91.2264 16.648 91.2264 15.6342V15.5258H89.1541V15.6342C89.1541 16.2335 89.084 16.6735 88.9373 16.9413C88.8034 17.19 88.5994 17.3111 88.3125 17.3111C88.1212 17.3111 87.9618 17.2665 87.847 17.1836C87.7258 17.1007 87.6366 16.954 87.5664 16.7628C87.4963 16.5523 87.4453 16.2845 87.4198 15.9593C87.3943 15.6342 87.3752 15.2261 87.3752 14.7606C87.3752 14.3207 87.3879 13.9381 87.4198 13.6193C87.4453 13.3069 87.4963 13.0454 87.5664 12.8414C87.6366 12.6501 87.7322 12.5098 87.8661 12.4142C88 12.3185 88.1722 12.2739 88.3826 12.2739C88.5484 12.2739 88.6759 12.3122 88.7715 12.3823C88.8672 12.4588 88.9501 12.5672 89.0011 12.6947C89.0585 12.8286 89.0967 12.988 89.1222 13.1538C89.1477 13.326 89.1541 13.5109 89.1541 13.6894V13.7978H91.2264L91.22 13.7914Z" fill="#FF5400"/>
<path d="M60.6142 11.6813C60.3783 11.3242 60.0531 11.0564 59.6514 10.8843C59.2561 10.7121 58.746 10.6356 58.153 10.642C57.5856 10.642 57.101 10.7312 56.7056 10.9098C56.3103 11.0883 55.9851 11.3625 55.7365 11.7068C55.4942 12.0511 55.3156 12.4847 55.2136 12.9948C55.1116 13.4985 55.0542 14.0851 55.0542 14.7419C55.0542 15.3986 55.1052 15.998 55.1945 16.5081C55.2901 17.0245 55.4559 17.4581 55.6918 17.8024C55.9277 18.1531 56.2529 18.4145 56.6546 18.574C57.0308 18.727 57.4963 18.8035 58.051 18.8035C58.0829 18.8035 58.1148 18.8035 58.1467 18.8035C58.7141 18.8035 59.1987 18.7206 59.594 18.5548C59.9894 18.389 60.3209 18.1276 60.5632 17.7769C60.8055 17.4326 60.9841 16.999 61.0861 16.4889C61.1881 15.9852 61.2455 15.3986 61.2455 14.7419C61.2455 14.0851 61.1945 13.473 61.1052 12.9693C61.0096 12.4592 60.8438 12.0256 60.6079 11.6749L60.6142 11.6813ZM57.2157 14.7482C57.2157 14.3657 57.2221 14.0022 57.2412 13.6834C57.2604 13.3646 57.305 13.0904 57.3688 12.8609C57.4325 12.6441 57.5282 12.4783 57.6557 12.3572C57.7768 12.2424 57.9362 12.185 58.1467 12.185C58.4973 12.185 58.7333 12.3635 58.8672 12.7397C59.0138 13.1414 59.084 13.8173 59.084 14.7546C59.084 15.6919 59.0074 16.3678 58.8672 16.7695C58.7333 17.1393 58.4973 17.3242 58.1467 17.3242C57.9362 17.3242 57.7768 17.2668 57.6557 17.1521C57.5282 17.0309 57.4325 16.8651 57.3688 16.6483C57.2986 16.4188 57.254 16.1446 57.2412 15.8258C57.2221 15.5006 57.2157 15.1436 57.2157 14.761V14.7482Z" fill="#3E3A39"/>
<path d="M69.4516 10.648C68.9734 10.648 68.5525 10.7564 68.2018 10.9668C67.9149 11.1453 67.6854 11.394 67.526 11.7064C67.4048 11.4004 67.2072 11.1517 66.9457 10.9732C66.6206 10.7564 66.2189 10.6416 65.747 10.6416C65.3071 10.6416 64.9245 10.7181 64.6057 10.8775C64.3506 11.005 64.1147 11.1963 63.9043 11.445V10.8393H61.832V18.6501H63.9936V13.5428C63.9936 13.1219 64.0765 12.8095 64.2422 12.6246C64.408 12.4397 64.6248 12.3504 64.9054 12.3504C65.1413 12.3504 65.3071 12.4206 65.4027 12.5608C65.5047 12.7139 65.5621 12.937 65.5621 13.2367V18.6501H67.7236V13.5428C67.7236 13.1219 67.8065 12.8095 67.9723 12.6246C68.1381 12.4397 68.3549 12.3504 68.6354 12.3504C68.8714 12.3504 69.0371 12.4206 69.1328 12.5608C69.2348 12.7139 69.2922 12.937 69.2922 13.2367V18.6501H71.4537V13.0263C71.4537 12.2739 71.2943 11.6809 70.9755 11.2728C70.6503 10.8584 70.1402 10.648 69.458 10.648H69.4516Z" fill="#3E3A39"/>
<path d="M78.0404 15.1496V14.6076C78.0404 14.021 78.0021 13.479 77.9256 13.0008C77.8491 12.5162 77.7024 12.089 77.4856 11.7447C77.2689 11.394 76.9692 11.1198 76.5866 10.9285C76.2104 10.7372 75.7258 10.6416 75.1456 10.6416C74.4697 10.6416 73.9213 10.7564 73.5133 10.9795C73.1052 11.2027 72.78 11.5151 72.5632 11.8977C72.3464 12.2739 72.1998 12.7075 72.1296 13.1921C72.0595 13.6639 72.0212 14.1676 72.0212 14.6777C72.0212 15.1559 72.0404 15.6469 72.085 16.1251C72.1296 16.6161 72.2508 17.0688 72.4421 17.4641C72.6397 17.8658 72.9458 18.1974 73.3602 18.4397C73.7683 18.682 74.3422 18.8095 75.0691 18.8095C76.0255 18.8095 76.7396 18.5672 77.1923 18.0826C77.6387 17.6044 77.8873 16.903 77.9256 15.9976V15.8892H75.9745L75.9617 15.9849C75.9043 16.4439 75.8087 16.7946 75.6684 17.0114C75.5345 17.2155 75.3305 17.3175 75.0372 17.3175C74.8842 17.3175 74.7566 17.2792 74.6482 17.19C74.5398 17.1007 74.4506 16.9795 74.3804 16.8329C74.3103 16.6799 74.2593 16.4949 74.2274 16.2973C74.1955 16.0932 74.1764 15.8765 74.1764 15.6597V15.1559H78.034L78.0404 15.1496ZM74.6546 12.2994C74.763 12.2229 74.9097 12.1846 75.0818 12.1846C75.254 12.1846 75.4006 12.2165 75.5154 12.2867C75.6238 12.3568 75.7067 12.4588 75.7704 12.5927C75.8342 12.7394 75.8852 12.9179 75.9107 13.1283C75.9362 13.3132 75.949 13.5364 75.9617 13.7787H74.1828V13.5874C74.1828 13.4152 74.2019 13.2431 74.2274 13.0709C74.2593 12.9052 74.3103 12.7457 74.3804 12.6118C74.4442 12.4843 74.5398 12.3759 74.6482 12.2994H74.6546Z" fill="#3E3A39"/>
<path d="M52.3188 12.88H49.8576V9.26465H47.696V18.6504H49.8576V14.7992H52.3188V18.6504H54.4803V9.26465H52.3188V12.88Z" fill="#3E3A39"/>
</g>
<defs>
<clipPath id="clip0_5507_26141">
<rect width="90.44" height="24" fill="white" transform="translate(0.780029)"/>
</clipPath>
</defs>
</svg>
